<svg width="212" height="56" viewBox="0 0 212 56" fill="none" xmlns="http://www.w3.org/2000/svg">
<mask id="path-1-inside-1_303_2339" fill="white">
<path d="M0 8C0 3.58172 3.58172 0 8 0H198C202.418 0 206 3.58172 206 8V48C206 52.4183 202.418 56 198 56H8C3.58172 56 0 52.4183 0 48V8Z"/>
</mask>
<path d="M0 8C0 3.58172 3.58172 0 8 0H198C202.418 0 206 3.58172 206 8V48C206 52.4183 202.418 56 198 56H8C3.58172 56 0 52.4183 0 48V8Z" fill="white"/>
<path d="M8 1H198V-1H8V1ZM205 8V48H207V8H205ZM198 55H8V57H198V55ZM1 48V8H-1V48H1ZM8 55C4.134 55 1 51.866 1 48H-1C-1 52.9706 3.02943 57 8 57V55ZM205 48C205 51.866 201.866 55 198 55V57C202.971 57 207 52.9706 207 48H205ZM198 1C201.866 1 205 4.13401 205 8H207C207 3.02944 202.971 -1 198 -1V1ZM8 -1C3.02944 -1 -1 3.02944 -1 8H1C1 4.13401 4.13401 1 8 1V-1Z" fill="#D9D9D9" mask="url(#path-1-inside-1_303_2339)"/>
<path d="M200.05 28L205.707 33.6569L211.364 28L205.707 22.3431L200.05 28Z" fill="white"/>
<path fill-rule="evenodd" clip-rule="evenodd" d="M205.707 22.3431L211.364 28L205.707 33.6569L205 32.9497L209.95 28L205 23.0503L205.707 22.3431Z" fill="#D9D9D9"/>
<path d="M13.33 20.004H14.296C16.648 20.004 18.16 19.948 19.924 19.612L20.05 20.564C18.23 20.9 16.704 20.984 14.296 20.984H13.33V20.004ZM13.33 12.64H19.084V13.592H14.478V20.368H13.33V12.64ZM21.968 11.436H23.13V24.12H21.968V11.436ZM18.342 16.014H22.444V16.98H18.342V16.014ZM30.9724 11.982H39.1204V12.92H30.9724V11.982ZM29.5164 16.49H40.9824V17.442H29.5164V16.49ZM34.6404 17.162H35.8024V19.78H34.6404V17.162ZM38.3644 11.982H39.4984V12.892C39.4984 13.928 39.4984 15.202 39.0784 16.924L37.9444 16.784C38.3644 15.104 38.3644 13.9 38.3644 12.892V11.982ZM35.2144 19.388C37.9444 19.388 39.6104 20.242 39.6104 21.74C39.6104 23.224 37.9444 24.078 35.2144 24.078C32.4844 24.078 30.8324 23.224 30.8324 21.74C30.8324 20.242 32.4844 19.388 35.2144 19.388ZM35.2144 20.34C33.2124 20.34 31.9944 20.844 31.9944 21.74C31.9944 22.622 33.2124 23.14 35.2144 23.14C37.2304 23.14 38.4344 22.622 38.4344 21.74C38.4344 20.844 37.2304 20.34 35.2144 20.34ZM43.8513 12.094H51.9993V13.046H43.8513V12.094ZM42.3953 16.756H53.8613V17.708H42.3953V16.756ZM51.2433 12.094H52.3773V13.032C52.3773 14.11 52.3773 15.342 51.9573 17.092L50.8233 17.036C51.2433 15.3 51.2433 14.082 51.2433 13.032V12.094ZM43.7953 19.43H52.4193V23.924H43.7953V19.43ZM51.2853 20.354H44.9293V22.986H51.2853V20.354ZM63.9262 11.45H65.0882V20.942H63.9262V11.45ZM64.7242 15.594H66.9642V16.574H64.7242V15.594ZM55.3022 12.976H62.7782V13.914H55.3022V12.976ZM59.0402 14.614C60.8322 14.614 62.0642 15.552 62.0642 16.98C62.0642 18.394 60.8322 19.332 59.0402 19.332C57.2342 19.332 56.0022 18.394 56.0022 16.98C56.0022 15.552 57.2342 14.614 59.0402 14.614ZM59.0402 15.524C57.8922 15.524 57.1082 16.098 57.1082 16.98C57.1082 17.848 57.8922 18.422 59.0402 18.422C60.1742 18.422 60.9582 17.848 60.9582 16.98C60.9582 16.098 60.1742 15.524 59.0402 15.524ZM58.4522 11.436H59.6142V13.466H58.4522V11.436ZM57.2062 22.86H65.6622V23.812H57.2062V22.86ZM57.2062 20.186H58.3682V23.266H57.2062V20.186ZM81.7226 11.436H82.8426V24.092H81.7226V11.436ZM76.2346 16.602H79.4266V17.54H76.2346V16.602ZM79.0906 11.758H80.1826V23.448H79.0906V11.758ZM76.3886 13.032H77.5086C77.5086 16.35 76.1786 19.332 72.7626 21.362L72.0766 20.536C75.0586 18.744 76.3886 16.224 76.3886 13.242V13.032ZM72.6366 13.032H76.8226V13.984H72.6366V13.032ZM92.057 19.22H92.953V19.906C92.953 21.558 91.917 23.224 90.097 23.924L89.509 23.056C91.105 22.482 92.057 21.124 92.057 19.906V19.22ZM92.309 19.22H93.177V19.906C93.177 21.18 93.933 22.538 95.445 23.154L94.955 24.036C93.135 23.322 92.309 21.586 92.309 19.906V19.22ZM96.733 19.22H97.601V19.906C97.601 21.39 96.761 23.266 94.955 24.036L94.465 23.154C95.963 22.468 96.733 20.998 96.733 19.906V19.22ZM96.971 19.22H97.867V19.906C97.867 21.208 98.805 22.51 100.415 23.056L99.827 23.924C97.979 23.252 96.971 21.656 96.971 19.906V19.22ZM98.105 11.45H99.281V18.674H98.105V11.45ZM92.491 12.178C94.409 12.178 95.781 13.382 95.781 15.132C95.781 16.882 94.409 18.072 92.491 18.072C90.573 18.072 89.187 16.882 89.187 15.132C89.187 13.382 90.573 12.178 92.491 12.178ZM92.491 13.144C91.231 13.144 90.321 13.956 90.321 15.132C90.321 16.308 91.231 17.106 92.491 17.106C93.751 17.106 94.661 16.308 94.661 15.132C94.661 13.956 93.751 13.144 92.491 13.144ZM110.34 11.422H111.516V24.106H110.34V11.422ZM111.236 16.42H113.588V17.4H111.236V16.42ZM102.318 19.976H103.312C105.65 19.976 107.288 19.892 109.178 19.542L109.304 20.522C107.358 20.886 105.692 20.956 103.312 20.956H102.318V19.976ZM102.318 12.654H108.198V13.606H103.466V20.41H102.318V12.654ZM120.727 13.662H124.269V14.614H120.727V13.662ZM120.727 16.364H124.297V17.33H120.727V16.364ZM115.239 12.528H121.021V18.464H115.239V12.528ZM119.873 13.466H116.373V17.526H119.873V13.466ZM123.905 11.45H125.067V20.69H123.905V11.45ZM116.933 22.86H125.375V23.812H116.933V22.86ZM116.933 19.85H118.095V23.294H116.933V19.85ZM129.449 20.1364V20.0767C129.455 19.4437 129.522 18.9399 129.648 18.5653C129.774 18.1908 129.953 17.8875 130.185 17.6555C130.417 17.4235 130.695 17.2098 131.02 17.0142C131.215 16.8949 131.391 16.754 131.547 16.5916C131.703 16.4259 131.825 16.2353 131.915 16.0199C132.008 15.8045 132.054 15.5658 132.054 15.304C132.054 14.9792 131.978 14.6974 131.825 14.4588C131.673 14.2202 131.469 14.0362 131.214 13.907C130.959 13.7777 130.675 13.7131 130.364 13.7131C130.092 13.7131 129.83 13.7694 129.578 13.8821C129.326 13.9948 129.116 14.1721 128.947 14.4141C128.778 14.656 128.68 14.9725 128.653 15.3636H127.401C127.427 14.8002 127.573 14.3179 127.838 13.9169C128.107 13.5159 128.46 13.2093 128.897 12.9972C129.338 12.785 129.827 12.679 130.364 12.679C130.947 12.679 131.454 12.795 131.885 13.027C132.319 13.259 132.654 13.5772 132.889 13.9815C133.128 14.3859 133.247 14.8466 133.247 15.3636C133.247 15.7282 133.191 16.058 133.078 16.353C132.969 16.648 132.81 16.9115 132.601 17.1435C132.395 17.3755 132.147 17.581 131.855 17.7599C131.563 17.9422 131.33 18.1345 131.154 18.3366C130.978 18.5355 130.851 18.7725 130.771 19.0476C130.692 19.3227 130.649 19.6657 130.642 20.0767V20.1364H129.449ZM130.085 23.0795C129.84 23.0795 129.629 22.9917 129.454 22.8161C129.278 22.6404 129.19 22.4299 129.19 22.1847C129.19 21.9394 129.278 21.7289 129.454 21.5533C129.629 21.3776 129.84 21.2898 130.085 21.2898C130.33 21.2898 130.541 21.3776 130.717 21.5533C130.892 21.7289 130.98 21.9394 130.98 22.1847C130.98 22.3471 130.939 22.4962 130.856 22.6321C130.776 22.768 130.669 22.8774 130.533 22.9602C130.4 23.0398 130.251 23.0795 130.085 23.0795ZM15.332 33.718H16.214V34.068C16.214 36.07 15.192 37.988 13.358 38.786L12.798 37.904C14.394 37.218 15.332 35.636 15.332 34.068V33.718ZM15.556 33.718H16.424V34.068C16.424 35.524 17.404 36.994 18.986 37.624L18.44 38.492C16.592 37.764 15.556 35.972 15.556 34.068V33.718ZM13.036 33.116H18.678V34.04H13.036V33.116ZM15.332 31.632H16.424V33.536H15.332V31.632ZM22.248 31.45H23.354V40.004H22.248V31.45ZM20.26 34.656H22.654V35.622H20.26V34.656ZM19.56 31.66H20.652V38.912H19.56V31.66ZM18.58 39.486H19.56V39.78C19.56 42.006 17.278 43.602 14.73 44.05L14.296 43.14C16.522 42.79 18.58 41.418 18.58 39.78V39.486ZM18.734 39.486H19.728V39.78C19.728 41.418 21.786 42.79 24.012 43.14L23.578 44.05C21.03 43.602 18.734 42.006 18.734 39.78V39.486ZM27.0909 31.758H28.2389V33.158H34.3569V31.758H35.5189V36.434H27.0909V31.758ZM28.2389 34.068V35.496H34.3569V34.068H28.2389ZM25.5649 37.848H37.0029V38.786H25.5649V37.848ZM30.7169 35.986H31.8649V38.1H30.7169V35.986ZM30.7029 39.626H31.6969V39.962C31.6969 42.174 29.4709 43.63 26.8809 44.05L26.4609 43.14C28.7569 42.818 30.7029 41.586 30.7029 39.962V39.626ZM30.8849 39.626H31.8789V39.962C31.8789 41.586 33.8109 42.818 36.1209 43.14L35.6869 44.05C33.0969 43.63 30.8849 42.174 30.8849 39.962V39.626ZM43.5818 36.35H45.9758V37.316H43.5818V36.35ZM48.0898 31.436H49.2098V44.092H48.0898V31.436ZM45.5838 31.702H46.6898V43.462H45.5838V31.702ZM41.2998 32.486C42.9378 32.486 44.0018 34.18 44.0018 36.896C44.0018 39.612 42.9378 41.306 41.2998 41.306C39.6618 41.306 38.6118 39.612 38.6118 36.896C38.6118 34.18 39.6618 32.486 41.2998 32.486ZM41.2998 33.564C40.3058 33.564 39.6758 34.852 39.6758 36.896C39.6758 38.94 40.3058 40.228 41.2998 40.228C42.3078 40.228 42.9378 38.94 42.9378 36.896C42.9378 34.852 42.3078 33.564 41.2998 33.564ZM60.9687 31.436H62.0887V44.092H60.9687V31.436ZM55.4807 36.602H58.6727V37.54H55.4807V36.602ZM58.3367 31.758H59.4287V43.448H58.3367V31.758ZM55.6347 33.032H56.7547C56.7547 36.35 55.4247 39.332 52.0087 41.362L51.3227 40.536C54.3047 38.744 55.6347 36.224 55.6347 33.242V33.032ZM51.8827 33.032H56.0687V33.984H51.8827V33.032ZM73.2771 37.414H74.4251V39.36H73.2771V37.414ZM68.1391 36.77H79.5771V37.708H68.1391V36.77ZM69.6231 31.856H78.0931V35.706H69.6231V31.856ZM76.9591 32.78H70.7711V34.782H76.9591V32.78ZM69.5251 38.94H78.1211V41.782H70.7011V43.322H69.5531V40.942H76.9731V39.836H69.5251V38.94ZM69.5531 43.042H78.4991V43.952H69.5531V43.042ZM84.406 32.402C86.24 32.402 87.556 34.124 87.556 36.812C87.556 39.514 86.24 41.236 84.406 41.236C82.558 41.236 81.256 39.514 81.256 36.812C81.256 34.124 82.558 32.402 84.406 32.402ZM84.406 33.452C83.188 33.452 82.362 34.768 82.362 36.812C82.362 38.87 83.188 40.214 84.406 40.214C85.624 40.214 86.45 38.87 86.45 36.812C86.45 34.768 85.624 33.452 84.406 33.452ZM90.3 31.422H91.448V44.106H90.3V31.422ZM87.178 36.252H90.804V37.204H87.178V36.252ZM93.9109 41.516H105.377V42.482H93.9109V41.516ZM99.0349 38.492H100.197V41.796H99.0349V38.492ZM95.2549 32.332H96.4029V34.586H102.857V32.332H104.005V38.8H95.2549V32.332ZM96.4029 35.524V37.848H102.857V35.524H96.4029ZM111.774 35.958H114.196V36.924H111.774V35.958ZM109.408 32.626H110.318V35.034C110.318 37.68 109.212 40.242 107.364 41.376L106.636 40.494C108.372 39.472 109.408 37.204 109.408 35.034V32.626ZM109.632 32.626H110.528V34.992C110.528 37.022 111.48 39.178 113.146 40.186L112.474 41.096C110.654 39.976 109.632 37.456 109.632 34.992V32.626ZM116.422 31.436H117.542V44.092H116.422V31.436ZM113.86 31.702H114.952V43.462H113.86V31.702ZM122.469 37.946H123.617V41.74H122.469V37.946ZM127.145 37.946H128.307V41.74H127.145V37.946ZM119.669 41.516H131.135V42.482H119.669V41.516ZM125.381 32.234C128.055 32.234 129.973 33.508 129.973 35.496C129.973 37.47 128.055 38.744 125.381 38.744C122.693 38.744 120.775 37.47 120.775 35.496C120.775 33.508 122.693 32.234 125.381 32.234ZM125.381 33.158C123.351 33.158 121.895 34.082 121.895 35.496C121.895 36.896 123.351 37.82 125.381 37.82C127.411 37.82 128.853 36.896 128.853 35.496C128.853 34.082 127.411 33.158 125.381 33.158ZM134.473 32.8182L134.373 40.1364H133.22L133.12 32.8182H134.473ZM133.797 43.0795C133.551 43.0795 133.341 42.9917 133.165 42.8161C132.989 42.6404 132.902 42.4299 132.902 42.1847C132.902 41.9394 132.989 41.7289 133.165 41.5533C133.341 41.3776 133.551 41.2898 133.797 41.2898C134.042 41.2898 134.252 41.3776 134.428 41.5533C134.604 41.7289 134.691 41.9394 134.691 42.1847C134.691 42.3471 134.65 42.4962 134.567 42.6321C134.488 42.768 134.38 42.8774 134.244 42.9602C134.111 43.0398 133.962 43.0795 133.797 43.0795Z" fill="black"/>
</svg>
