<svg width="18" height="16" viewBox="0 0 18 16" fill="none" xmlns="http://www.w3.org/2000/svg">
<path d="M8.86091 4.90909L11.4545 7.49455V7.36364C11.4545 6.71265 11.1959 6.08833 10.7356 5.62801C10.2753 5.16769 9.65099 4.90909 9 4.90909H8.86091ZM5.34273 5.56364L6.61091 6.83182C6.57 7.00364 6.54545 7.17545 6.54545 7.36364C6.54545 8.01462 6.80406 8.63895 7.26437 9.09926C7.72469 9.55958 8.34901 9.81818 9 9.81818C9.18 9.81818 9.36 9.79364 9.53182 9.75273L10.8 11.0209C10.2518 11.2909 9.64636 11.4545 9 11.4545C7.91502 11.4545 6.87448 11.0235 6.10729 10.2563C5.3401 9.48915 4.90909 8.44861 4.90909 7.36364C4.90909 6.71727 5.07273 6.11182 5.34273 5.56364ZM0.818182 1.03909L2.68364 2.90455L3.05182 3.27273C1.70182 4.33636 0.638182 5.72727 0 7.36364C1.41545 10.9555 4.90909 13.5 9 13.5C10.2682 13.5 11.4791 13.2545 12.5836 12.8127L12.9355 13.1564L15.3245 15.5455L16.3636 14.5064L1.85727 0M9 3.27273C10.085 3.27273 11.1255 3.70373 11.8927 4.47093C12.6599 5.23812 13.0909 6.27866 13.0909 7.36364C13.0909 7.88727 12.9845 8.39455 12.7964 8.85273L15.1936 11.25C16.4209 10.2273 17.4027 8.88545 18 7.36364C16.5845 3.77182 13.0909 1.22727 9 1.22727C7.85455 1.22727 6.75818 1.43182 5.72727 1.8L7.50273 3.55909C7.96909 3.37909 8.46818 3.27273 9 3.27273Z" fill="#151515"/>
</svg>
