<svg width="19" height="16" viewBox="0 0 19 16" fill="none" xmlns="http://www.w3.org/2000/svg">
<path d="M16.9298 1.41452C16.4815 0.966073 15.9493 0.610337 15.3636 0.367629C14.7778 0.124922 14.15 0 13.516 0C12.8819 0 12.2541 0.124922 11.6683 0.367629C11.0826 0.610337 10.5504 0.966073 10.1022 1.41452L9.17191 2.34476L8.24167 1.41452C7.33627 0.509117 6.10828 0.0004693 4.82786 0.000469309C3.54743 0.000469319 2.31945 0.509117 1.41405 1.41452C0.508648 2.31992 9.53993e-09 3.5479 0 4.82833C-9.53993e-09 6.10875 0.508648 7.33674 1.41405 8.24214L9.17191 16L16.9298 8.24214C17.3782 7.79391 17.734 7.26171 17.9767 6.67596C18.2194 6.0902 18.3443 5.46237 18.3443 4.82833C18.3443 4.19428 18.2194 3.56645 17.9767 2.9807C17.734 2.39494 17.3782 1.86275 16.9298 1.41452Z" fill="#FF7B5A"/>
</svg>
