<svg width="22" height="22" viewBox="0 0 22 22" fill="none" xmlns="http://www.w3.org/2000/svg">
<path d="M1 18.095C1 16.7996 1.50522 15.5573 2.40452 14.6413C3.30381 13.7253 4.52352 13.2107 5.79532 13.2107H15.386C16.6578 13.2107 17.8775 13.7253 18.7768 14.6413C19.6761 15.5573 20.1813 16.7996 20.1813 18.095C20.1813 18.7427 19.9287 19.3639 19.479 19.8219C19.0294 20.2798 18.4195 20.5371 17.7836 20.5371H3.39766C2.76176 20.5371 2.15191 20.2798 1.70226 19.8219C1.25261 19.3639 1 18.7427 1 18.095Z" stroke="#544C4C" stroke-width="2" stroke-linejoin="round"/>
<path d="M10.5906 8.32645C12.5769 8.32645 14.1871 6.68637 14.1871 4.66322C14.1871 2.64008 12.5769 1 10.5906 1C8.60434 1 6.99414 2.64008 6.99414 4.66322C6.99414 6.68637 8.60434 8.32645 10.5906 8.32645Z" stroke="#544C4C" stroke-width="2"/>
</svg>
